<svg xmlns="http://www.w3.org/2000/svg" width="16.119" height="18.826" viewBox="0 0 16.119 18.826">
  <g id="nN4TNa_00000010994140251885071870000009789142602793116313_" transform="translate(-29.2 -17.212)">
    <g id="Group_3" data-name="Group 3" transform="translate(29.2 17.212)">
      <path id="Path_1" data-name="Path 1" d="M41.3,82.367A6.05,6.05,0,1,1,35.255,76.3,6.025,6.025,0,0,1,41.3,82.367ZM35.255,77.7a4.656,4.656,0,0,0-.023,9.311,4.656,4.656,0,1,0,.023-9.311Z" transform="translate(-29.2 -69.574)" fill="#fff"/>
      <path id="Path_2" data-name="Path 2" d="M105.786,21.252c-.3-.353-.546-.649-.8-.956-.307-.376-.626-.74-.922-1.116-.1-.125-.171-.137-.273-.011-.524.637-1.059,1.275-1.594,1.912-.023.034-.068.08-.057.114.011.068.08.046.137.046a3.127,3.127,0,0,1,.455.023.673.673,0,0,1,.546.683v1.992a.681.681,0,0,1-.672.706.709.709,0,0,1-.706-.706q-.017-.529,0-1.059c0-.182-.068-.239-.239-.239-.319.011-.637,0-.945,0a.75.75,0,0,1-.763-.433.762.762,0,0,1,.182-.831c1.07-1.275,2.14-2.561,3.2-3.836a.7.7,0,0,1,1.184,0c1.081,1.286,2.151,2.584,3.233,3.87a.736.736,0,0,1,.159.8.725.725,0,0,1-.694.421c-.319.011-.637,0-.945,0-.285,0-.3.011-.3.3v4.747a2.525,2.525,0,0,1-.034.421.692.692,0,0,1-.66.546.714.714,0,0,1-.672-.512,1.239,1.239,0,0,1-.034-.353v-5.68c0-.615.262-.876.888-.876A.761.761,0,0,0,105.786,21.252Z" transform="translate(-91.853 -17.212)" fill="#fff"/>
      <g id="Group_2" data-name="Group 2" transform="translate(4.212 10.004)">
        <g id="Group_1" data-name="Group 1">
          <path id="Path_3" data-name="Path 3" d="M68.431,111.1c-.034-.011-.057-.046-.08-.068-.546-.649-1.093-1.286-1.651-1.924-.137-.159-.273-.307-.421-.455a.232.232,0,0,1-.068-.171v-.444c0-.137.057-.194.194-.194a6.613,6.613,0,0,0,.672-.011,1.483,1.483,0,0,0,.808-.262.7.7,0,0,0,.262-.364c.023-.068.023-.068-.046-.068H66.348a.124.124,0,0,1-.125-.1,2.343,2.343,0,0,1,0-.489.122.122,0,0,1,.114-.114c.034,0,.057-.011.091-.011h1.616c.046,0,.046-.011.023-.057a.663.663,0,0,0-.262-.239,1.352,1.352,0,0,0-.592-.159c-.273-.023-.535-.011-.808-.011-.148,0-.2-.057-.2-.2v-.455c0-.148.046-.194.194-.194h3.449c.148,0,.194.046.194.194v.33c0,.148-.046.194-.2.194h-.922c.034.057.068.091.091.137a1.535,1.535,0,0,1,.159.4c.011.046.034.057.08.057h.672a.138.138,0,0,1,.137.137,2.89,2.89,0,0,1,0,.444c-.011.091-.057.125-.148.125h-.626c-.046,0-.068.011-.08.068a1.587,1.587,0,0,1-.637,1.013,2.163,2.163,0,0,1-.831.353,2.011,2.011,0,0,0-.228.046c.068.08.137.148.2.228.467.5.9,1.024,1.332,1.559.125.148.25.307.376.455.08.1.068.171-.034.25C69.057,111.1,68.738,111.1,68.431,111.1Z" transform="translate(-66.2 -105.1)" fill="#fff"/>
        </g>
      </g>
    </g>
  </g>
</svg>
